<svg width="179" height="31" viewBox="0 0 179 31" fill="none" xmlns="http://www.w3.org/2000/svg">
<path d="M13.508 4.836V23.88C13.508 25.8 12.92 27.348 11.744 28.524C10.568 29.676 8.996 30.252 7.028 30.252C4.988 30.252 3.356 29.64 2.132 28.416C0.932 27.168 0.332 25.488 0.332 23.376H2.888C2.912 24.744 3.248 25.86 3.896 26.724C4.568 27.588 5.612 28.02 7.028 28.02C8.372 28.02 9.368 27.624 10.016 26.832C10.664 26.04 10.988 25.056 10.988 23.88V4.836H13.508ZM28.4488 30.288C26.6008 30.288 24.9328 29.88 23.4448 29.064C21.9808 28.224 20.8168 27.048 19.9528 25.536C19.1128 24 18.6928 22.212 18.6928 20.172C18.6928 18.132 19.1248 16.356 19.9888 14.844C20.8528 13.308 22.0288 12.132 23.5168 11.316C25.0048 10.476 26.6728 10.056 28.5208 10.056C30.3688 10.056 32.0368 10.476 33.5248 11.316C35.0368 12.132 36.2128 13.308 37.0528 14.844C37.9168 16.356 38.3488 18.132 38.3488 20.172C38.3488 22.188 37.9168 23.964 37.0528 25.5C36.1888 27.036 35.0008 28.224 33.4888 29.064C31.9768 29.88 30.2968 30.288 28.4488 30.288ZM28.4488 28.092C29.7448 28.092 30.9448 27.804 32.0488 27.228C33.1528 26.628 34.0408 25.74 34.7128 24.564C35.4088 23.364 35.7568 21.9 35.7568 20.172C35.7568 18.444 35.4208 16.992 34.7488 15.816C34.0768 14.616 33.1888 13.728 32.0848 13.152C30.9808 12.552 29.7808 12.252 28.4848 12.252C27.1888 12.252 25.9888 12.552 24.8848 13.152C23.7808 13.728 22.8928 14.616 22.2208 15.816C21.5728 16.992 21.2488 18.444 21.2488 20.172C21.2488 21.9 21.5728 23.364 22.2208 24.564C22.8928 25.74 23.7688 26.628 24.8488 27.228C25.9528 27.804 27.1528 28.092 28.4488 28.092ZM41.7905 20.136C41.7905 18.12 42.1865 16.356 42.9785 14.844C43.7945 13.308 44.9105 12.132 46.3265 11.316C47.7665 10.476 49.3865 10.056 51.1865 10.056C53.0585 10.056 54.6665 10.488 56.0105 11.352C57.3785 12.216 58.3625 13.32 58.9625 14.664V10.344H61.4825V30H58.9625V25.644C58.3385 26.988 57.3425 28.104 55.9745 28.992C54.6305 29.856 53.0225 30.288 51.1505 30.288C49.3745 30.288 47.7665 29.868 46.3265 29.028C44.9105 28.188 43.7945 27 42.9785 25.464C42.1865 23.928 41.7905 22.152 41.7905 20.136ZM58.9625 20.172C58.9625 18.588 58.6385 17.196 57.9905 15.996C57.3425 14.796 56.4545 13.872 55.3265 13.224C54.2225 12.576 52.9985 12.252 51.6545 12.252C50.2625 12.252 49.0145 12.564 47.9105 13.188C46.8065 13.812 45.9305 14.724 45.2825 15.924C44.6585 17.1 44.3465 18.504 44.3465 20.136C44.3465 21.744 44.6585 23.16 45.2825 24.384C45.9305 25.584 46.8065 26.508 47.9105 27.156C49.0145 27.78 50.2625 28.092 51.6545 28.092C52.9985 28.092 54.2225 27.768 55.3265 27.12C56.4545 26.472 57.3425 25.548 57.9905 24.348C58.6385 23.148 58.9625 21.756 58.9625 20.172ZM47.5145 8.184C47.6585 7.104 48.0065 6.276 48.5585 5.7C49.1105 5.124 49.8185 4.836 50.6825 4.836C51.1145 4.836 51.4865 4.92 51.7985 5.088C52.1105 5.232 52.4825 5.448 52.9145 5.736C53.2745 6 53.5865 6.204 53.8505 6.348C54.1145 6.468 54.4025 6.528 54.7145 6.528C55.1225 6.528 55.4705 6.396 55.7585 6.132C56.0465 5.844 56.2265 5.436 56.2985 4.908H57.8105C57.7145 5.964 57.3665 6.792 56.7665 7.392C56.1905 7.968 55.4705 8.256 54.6065 8.256C54.1505 8.256 53.7545 8.184 53.4185 8.04C53.1065 7.872 52.7345 7.632 52.3025 7.32C51.9665 7.056 51.6665 6.864 51.4025 6.744C51.1625 6.624 50.8865 6.564 50.5745 6.564C49.7105 6.564 49.2065 7.104 49.0625 8.184H47.5145ZM75.8395 30.288C73.9915 30.288 72.3235 29.88 70.8355 29.064C69.3715 28.224 68.2075 27.048 67.3435 25.536C66.5035 24 66.0835 22.212 66.0835 20.172C66.0835 18.132 66.5155 16.356 67.3795 14.844C68.2435 13.308 69.4195 12.132 70.9075 11.316C72.3955 10.476 74.0635 10.056 75.9115 10.056C77.7595 10.056 79.4275 10.476 80.9155 11.316C82.4275 12.132 83.6035 13.308 84.4435 14.844C85.3075 16.356 85.7395 18.132 85.7395 20.172C85.7395 22.188 85.3075 23.964 84.4435 25.5C83.5795 27.036 82.3915 28.224 80.8795 29.064C79.3675 29.88 77.6875 30.288 75.8395 30.288ZM75.8395 28.092C77.1355 28.092 78.3355 27.804 79.4395 27.228C80.5435 26.628 81.4315 25.74 82.1035 24.564C82.7995 23.364 83.1475 21.9 83.1475 20.172C83.1475 18.444 82.8115 16.992 82.1395 15.816C81.4675 14.616 80.5795 13.728 79.4755 13.152C78.3715 12.552 77.1715 12.252 75.8755 12.252C74.5795 12.252 73.3795 12.552 72.2755 13.152C71.1715 13.728 70.2835 14.616 69.6115 15.816C68.9635 16.992 68.6395 18.444 68.6395 20.172C68.6395 21.9 68.9635 23.364 69.6115 24.564C70.2835 25.74 71.1595 26.628 72.2395 27.228C73.3435 27.804 74.5435 28.092 75.8395 28.092Z" fill="#E5F9E0"/>
<path d="M107.433 12.432C106.857 11.376 106.065 10.572 105.057 10.02C104.049 9.468 102.873 9.192 101.529 9.192C100.041 9.192 98.7211 9.528 97.5691 10.2C96.4171 10.872 95.5171 11.832 94.8691 13.08C94.2211 14.328 93.8971 15.768 93.8971 17.4C93.8971 19.08 94.2211 20.544 94.8691 21.792C95.5411 23.04 96.4651 24 97.6411 24.672C98.8171 25.344 100.185 25.68 101.745 25.68C103.665 25.68 105.237 25.176 106.461 24.168C107.685 23.136 108.489 21.708 108.873 19.884H100.233V16.032H113.841V20.424C113.505 22.176 112.785 23.796 111.681 25.284C110.577 26.772 109.149 27.972 107.397 28.884C105.669 29.772 103.725 30.216 101.565 30.216C99.1411 30.216 96.9451 29.676 94.9771 28.596C93.0331 27.492 91.4971 25.968 90.3691 24.024C89.2651 22.08 88.7131 19.872 88.7131 17.4C88.7131 14.928 89.2651 12.72 90.3691 10.776C91.4971 8.808 93.0331 7.284 94.9771 6.204C96.9451 5.1 99.1291 4.548 101.529 4.548C104.361 4.548 106.821 5.244 108.909 6.636C110.997 8.004 112.437 9.936 113.229 12.432H107.433ZM126.426 30.324C124.506 30.324 122.778 29.904 121.242 29.064C119.706 28.2 118.494 26.988 117.606 25.428C116.742 23.868 116.31 22.068 116.31 20.028C116.31 17.988 116.754 16.188 117.642 14.628C118.554 13.068 119.79 11.868 121.35 11.028C122.91 10.164 124.65 9.732 126.57 9.732C128.49 9.732 130.23 10.164 131.79 11.028C133.35 11.868 134.574 13.068 135.462 14.628C136.374 16.188 136.83 17.988 136.83 20.028C136.83 22.068 136.362 23.868 135.426 25.428C134.514 26.988 133.266 28.2 131.682 29.064C130.122 29.904 128.37 30.324 126.426 30.324ZM126.426 25.932C127.338 25.932 128.19 25.716 128.982 25.284C129.798 24.828 130.446 24.156 130.926 23.268C131.406 22.38 131.646 21.3 131.646 20.028C131.646 18.132 131.142 16.68 130.134 15.672C129.15 14.64 127.938 14.124 126.498 14.124C125.058 14.124 123.846 14.64 122.862 15.672C121.902 16.68 121.422 18.132 121.422 20.028C121.422 21.924 121.89 23.388 122.826 24.42C123.786 25.428 124.986 25.932 126.426 25.932ZM130.71 4.62L122.43 8.4V4.8L130.71 0.515998V4.62ZM159.067 19.596C159.067 20.316 159.019 20.964 158.923 21.54H144.343C144.463 22.98 144.967 24.108 145.855 24.924C146.743 25.74 147.835 26.148 149.131 26.148C151.003 26.148 152.335 25.344 153.127 23.736H158.563C157.987 25.656 156.883 27.24 155.251 28.488C153.619 29.712 151.615 30.324 149.239 30.324C147.319 30.324 145.591 29.904 144.055 29.064C142.543 28.2 141.355 26.988 140.491 25.428C139.651 23.868 139.231 22.068 139.231 20.028C139.231 17.964 139.651 16.152 140.491 14.592C141.331 13.032 142.507 11.832 144.019 10.992C145.531 10.152 147.271 9.732 149.239 9.732C151.135 9.732 152.827 10.14 154.315 10.956C155.827 11.772 156.991 12.936 157.807 14.448C158.647 15.936 159.067 17.652 159.067 19.596ZM153.847 18.156C153.823 16.86 153.355 15.828 152.443 15.06C151.531 14.268 150.415 13.872 149.095 13.872C147.847 13.872 146.791 14.256 145.927 15.024C145.087 15.768 144.571 16.812 144.379 18.156H153.847ZM170.378 30.324C168.746 30.324 167.282 30.036 165.986 29.46C164.69 28.86 163.658 28.056 162.89 27.048C162.146 26.04 161.738 24.924 161.666 23.7H166.742C166.838 24.468 167.21 25.104 167.858 25.608C168.53 26.112 169.358 26.364 170.342 26.364C171.302 26.364 172.046 26.172 172.574 25.788C173.126 25.404 173.402 24.912 173.402 24.312C173.402 23.664 173.066 23.184 172.394 22.872C171.746 22.536 170.702 22.176 169.262 21.792C167.774 21.432 166.55 21.06 165.59 20.676C164.654 20.292 163.838 19.704 163.142 18.912C162.47 18.12 162.134 17.052 162.134 15.708C162.134 14.604 162.446 13.596 163.07 12.684C163.718 11.772 164.63 11.052 165.806 10.524C167.006 9.996 168.41 9.732 170.018 9.732C172.394 9.732 174.29 10.332 175.706 11.532C177.122 12.708 177.902 14.304 178.046 16.32H173.222C173.15 15.528 172.814 14.904 172.214 14.448C171.638 13.968 170.858 13.728 169.874 13.728C168.962 13.728 168.254 13.896 167.75 14.232C167.27 14.568 167.03 15.036 167.03 15.636C167.03 16.308 167.366 16.824 168.038 17.184C168.71 17.52 169.754 17.868 171.17 18.228C172.61 18.588 173.798 18.96 174.734 19.344C175.67 19.728 176.474 20.328 177.146 21.144C177.842 21.936 178.202 22.992 178.226 24.312C178.226 25.464 177.902 26.496 177.254 27.408C176.63 28.32 175.718 29.04 174.518 29.568C173.342 30.072 171.962 30.324 170.378 30.324Z" fill="#00F700"/>
</svg>
